<?xml version="1.0" encoding="UTF-8"?>
<svg id="Ebene_2" xmlns="http://www.w3.org/2000/svg" viewBox="0 0 250 262.845">
  <defs>
    <style>
      .cls-1 {
        fill: #668fa3;
      }

      .cls-2 {
        fill: #d2edfd;
      }

      .cls-3 {
        fill: #b6d3e1;
      }

      .cls-4 {
        fill: #fefefe;
      }

      .cls-5 {
        fill: #99bac6;
      }

      .cls-6 {
        fill: #4d7989;
      }
    </style>
  </defs>
  <path class="cls-3" d="M88.273,262.799c-3.149.014-6.297.064-9.453.035-3.177-.028-4.588-1.404-4.709-4.659-.085-2.269-.035-4.553-.007-6.822.014-1.071-.177-1.95-1.425-2.113-2.957-.383-5.751-1.411-8.581-2.262-1.199-.362-1.745-.099-2.298.908-1.092,1.993-2.276,3.929-3.425,5.886-1.808,3.078-3.333,3.496-6.418,1.716-5.368-3.106-10.751-6.177-16.07-9.375-2.659-1.596-2.971-2.943-1.532-5.688.972-1.851,2.035-3.666,3.184-5.418.901-1.369,1.007-2.411-.347-3.624-2.021-1.808-3.936-3.737-5.758-5.751-1.12-1.241-2.106-1.227-3.411-.39-1.766,1.128-3.567,2.213-5.411,3.191-2.908,1.539-4.227,1.255-5.893-1.518-3.376-5.61-6.659-11.283-9.914-16.963-1.17-2.035-.39-3.858,2.135-5.361,1.872-1.12,3.73-2.284,5.68-3.248,1.525-.759,1.617-1.659,1.12-3.156-.83-2.468-1.518-5.007-2.021-7.56-.284-1.447-.95-1.886-2.298-1.858-2.362.05-4.73.064-7.085,0-2.702-.071-4.269-1.567-4.29-4.241-.064-6.39-.057-12.779,0-19.162.021-2.851,1.532-4.29,4.432-4.361,2.276-.057,4.553-.078,6.822.007,1.411.05,2.064-.553,2.362-1.865.482-2.12.986-4.241,1.617-6.326,1.085-3.617,1.128-3.603-2.198-5.51-1.518-.865-3.064-1.681-4.56-2.581-2.276-1.376-2.787-3.298-1.489-5.553,3.099-5.368,6.205-10.737,9.34-16.091,1.723-2.943,3.496-3.369,6.51-1.667,1.901,1.071,3.844,2.078,5.716,3.198,1.085.645,1.844.532,2.723-.411,1.971-2.106,4.021-4.149,6.113-6.134.922-.872,1.092-1.667.433-2.752-1.227-2.014-2.454-4.028-3.567-6.106-1.404-2.638-.865-4.404,1.702-5.9,5.205-3.035,10.411-6.078,15.63-9.077,3.276-1.879,5.056-1.362,6.815,1.886,2.487,4.61,6.26,6.203,11.318,4.78,4.326-1.22,4.411-1.22,4.312-5.702-.177-7.943.589-8.602,8.375-8.297,1.922.078,3.851,0,5.773-.007,0,1.397-.05,2.801.021,4.198.135,2.51-1.042,5.638.496,7.354,1.277,1.425,4.34,1.248,6.617,1.787.17.043.326.135.489.184,15.027,4.503,28.019,12.169,38.593,23.942,11.368,12.652,17.694,27.488,19.339,44.224,1.184,12.063-.745,23.906-5.567,35.047-7.666,17.708-20.268,30.962-37.458,39.756-6.312,3.227-13.006,5.503-19.963,6.914-1.879.383-2.78,1.149-2.617,3.291.234,3.042.078,6.12.092,9.184l.007.021ZM84.642,122.865c-2.979.057-5.865.723-8.73,1.411-21.41,5.141-37.643,23.615-39.586,45.359-1.291,14.396,2.532,27.452,11.886,38.536,9.326,11.042,21.346,17.24,35.834,18.431,3.922.064,7.829.213,11.758-.376,30.14-4.496,49.89-33.686,42.869-63.435-6.028-25.523-29.658-41.593-54.039-39.926h.007Z"/>
  <path class="cls-1" d="M195.38,121.567c-3.851.028-7.695.092-11.545.064-2.51-.021-3.865-1.319-4.056-3.837-.106-1.39-.156-2.815,0-4.191.213-1.823-.652-2.482-2.198-3.234-1.872-.908-2.886-.489-4.234.886-5.34,5.461-5.539,5.418-10.935.05-4.34-4.319-8.673-8.645-12.992-12.992-2.723-2.737-2.695-4.298.057-7.092.489-.496.929-1.085,1.496-1.468,2.34-1.574,2.078-3.432.879-5.602-.546-.986-1.113-1.425-2.227-1.376-1.397.071-2.801.028-4.198.014-3.312-.035-4.454-1.156-4.489-4.673-.057-5.858-.021-11.723-.014-17.587,0-7.425-.83-9.226,8.397-8.673,1.879.113,2.369-.936,2.908-2.312.518-1.319,1.227-2.496-.298-3.709-1.156-.922-2.149-2.057-3.163-3.142-1.752-1.879-1.837-3.744-.064-5.539,5.475-5.539,10.999-11.021,16.517-16.517,1.752-1.745,3.567-1.603,5.34-.05.922.808,1.844,1.638,2.603,2.588,1.326,1.659,2.645,2.078,4.695,1.028,1.39-.709,2.035-1.369,1.908-2.922-.113-1.39-.092-2.801,0-4.198.177-2.808,1.532-4.142,4.333-4.17,3.759-.043,7.524.043,11.283.071,0,1.489-.014,2.971-.014,4.461,0,3.752.007,3.702,3.638,4.404,7.56,1.461,14.24,4.9,19.786,10.113,12.489,11.723,17.474,26.41,14.737,43.16-3.007,18.396-13.63,30.906-31.473,37.026-2.206.759-5.468-.163-6.468,2.149-.894,2.064-.206,4.815-.213,7.269h.007ZM190.926,42.112c-.858.149-1.73.22-2.56.454-13.85,3.83-21.871,18.616-17.587,32.367,3.099,9.95,12.524,17.623,21.949,17.871.752.631,1.667.44,2.518.447,17.417.149,29.906-16.673,24.991-33.409-3.957-13.467-18.389-20.63-29.303-17.729h-.007Z"/>
  <path class="cls-5" d="M88.273,262.799c-.014-3.064.142-6.134-.092-9.184-.163-2.142.738-2.908,2.617-3.291,6.964-1.411,13.652-3.688,19.963-6.914,17.19-8.794,29.792-22.055,37.458-39.756,4.822-11.141,6.751-22.991,5.567-35.047-1.645-16.736-7.971-31.572-19.339-44.224-10.581-11.772-23.573-19.445-38.593-23.942-.17-.05-.319-.149-.489-.184-2.269-.539-5.34-.362-6.617-1.787-1.539-1.716-.362-4.844-.496-7.354-.071-1.397-.021-2.801-.021-4.198,3.638-.723,7.283-.617,10.886.085,2.007.39,2.808,1.915,2.808,3.886,0,2.362.057,4.723-.014,7.085-.043,1.397.525,2.085,1.879,2.333,2.837.518,5.624,1.227,8.326,2.241,1.248.468,1.929-.085,2.503-1.163,1.156-2.156,2.34-4.305,3.645-6.368,1.482-2.347,2.915-2.723,5.283-1.376,5.624,3.191,11.226,6.418,16.8,9.687,2.475,1.454,2.943,3.39,1.518,6.014-1.12,2.071-2.326,4.106-3.56,6.12-.652,1.064-.603,1.681.461,2.596,2.177,1.879,4.22,3.943,6.099,6.12.929,1.078,1.589,1.035,2.631.411,2.021-1.213,4.078-2.369,6.134-3.532,2.56-1.447,4.496-.993,5.978,1.539,3.269,5.574,6.503,11.177,9.694,16.8,1.326,2.34.922,3.908-1.355,5.305-2.007,1.234-4.078,2.369-6.163,3.482-1.347.723-1.886,1.511-1.255,3.135.908,2.354,1.624,4.794,1.886,7.34.17,1.645,1.057,2.425,2.823,2.326,2.184-.121,4.376-.064,6.56-.021,2.872.064,4.489,1.447,4.546,4.326.113,6.383.106,12.772,0,19.162-.043,2.596-1.993,4.269-4.617,4.305-2.184.028-4.383.128-6.56-.028-1.808-.128-2.454.681-2.78,2.298-.504,2.475-1.042,4.971-1.858,7.354-.518,1.525-.085,2.284,1.149,2.979,1.901,1.078,3.78,2.191,5.652,3.312,2.929,1.752,3.326,3.049,1.702,5.929-3.092,5.482-6.212,10.943-9.361,16.389-1.539,2.666-3.205,3.149-5.858,1.709-1.915-1.042-3.773-2.198-5.652-3.312-1.418-.844-2.659-1.042-3.794.56-.801,1.135-1.787,2.156-2.794,3.12q-4.035,3.822-1.135,8.666c.539.901,1.035,1.83,1.482,2.773,1.355,2.837.922,4.298-1.766,5.872-5.276,3.078-10.567,6.141-15.864,9.191-3.113,1.794-4.844,1.305-6.659-1.851-1.007-1.745-2.071-3.454-2.936-5.269-.667-1.404-1.34-1.908-2.979-1.312-2.447.886-5.007,1.489-7.546,2.078-1.581.362-2.418.986-2.276,2.794.17,2.177.092,4.376.028,6.56-.085,2.844-1.581,4.262-4.447,4.276-3.064.014-6.127-.021-9.184-.043h-.021Z"/>
  <path class="cls-6" d="M195.38,121.567c.007-2.447-.688-5.205.213-7.269,1.007-2.312,4.269-1.39,6.468-2.149,17.843-6.127,28.466-18.63,31.473-37.026,2.737-16.751-2.248-31.445-14.737-43.16-5.553-5.205-12.226-8.645-19.786-10.113-3.624-.702-3.638-.652-3.638-4.404,0-1.489.014-2.971.014-4.461,3.936-.028,7.865-.085,11.801-.078,2.432,0,3.688,1.376,3.851,3.73.092,1.39.149,2.808,0,4.191-.191,1.759.489,2.553,2.106,3.291,1.908.865,3.014.582,4.461-.894,5.333-5.432,5.397-5.376,10.886.085,4.397,4.376,8.801,8.751,13.184,13.155,2.645,2.659,2.624,4.142-.014,6.858-.61.624-1.177,1.319-1.865,1.837-1.709,1.284-1.872,2.61-1.05,4.659.823,2.05,2.177,1.893,3.752,1.893,7.375,0,7.503.135,7.503,7.439v18.885c0,3.752-1.213,4.95-5.028,5.007-.872.014-1.759.071-2.624-.014-1.83-.184-2.936.255-3.787,2.22-.879,2.028-.113,2.957,1.149,4.198,5.312,5.22,5.29,5.404,0,10.701-4.447,4.454-8.9,8.907-13.368,13.332-2.588,2.56-4.099,2.553-6.666.057-.624-.61-1.241-1.234-1.865-1.844-2.071-2.035-3.808-2.163-6.042-.539-.894.652-.695,1.546-.674,2.383.269,8.702-.823,8.241-8.361,8.127-2.447-.035-4.893-.064-7.34-.099h-.014Z"/>
  <path class="cls-1" d="M217.442,192.442c-2.759-.113-3.525-2.007-3.503-4.276.021-1.723-.468-2.354-2.255-2.666-2.659-.461-5.219-1.525-7.46-3.071-1.617-1.106-2.723-1.206-4.191.383-1.886,2.042-4.567,1.737-5.758-.397-.993-1.78-.596-3.439.936-4.688,1.425-1.163,1.589-2.17.454-3.716-1.78-2.425-2.851-5.241-3.319-8.198-.269-1.681-.979-2.128-2.581-2.113-2.95.021-4.369-1.142-4.404-3.291-.043-2.269,1.475-3.61,4.447-3.581,1.624.014,2.291-.468,2.56-2.135.475-2.957,1.61-5.751,3.361-8.184,1.057-1.468.865-2.404-.433-3.496-1.489-1.241-2.042-2.865-1.092-4.681,1.227-2.362,3.872-2.709,5.886-.511,1.454,1.581,2.489,1.56,4.106.383,2.213-1.61,4.78-2.603,7.453-3.099,1.667-.305,2.333-.879,2.312-2.681-.028-2.227.709-4.191,3.525-4.234-.014,1.574.071,3.156-.057,4.716-.135,1.681.553,2.39,2.142,3,3.517,1.355,6.524,3.517,9.276,6.184,12.226,11.836,9.155,33.317-6.014,40.884-4.624,2.305-6.184,4.822-5.376,9.467h-.014ZM213.584,171.599c4.482,2.085,9.716.716,13.382-3.503,3.454-3.978,3.844-9.865.936-14.347-2.993-4.617-7.999-6.546-13.148-5.063-5.177,1.135-8.936,5.539-9.29,10.886-.362,5.361,2.964,10.29,8.127,12.028h-.007Z"/>
  <path class="cls-6" d="M217.442,192.442c-.801-4.645.752-7.156,5.376-9.467,15.169-7.567,18.233-29.048,6.014-40.884-2.759-2.666-5.758-4.829-9.276-6.184-1.581-.61-2.269-1.319-2.142-3,.128-1.567.043-3.142.057-4.716,2.723.149,3.766,1.057,3.631,3.851-.099,2.028.638,2.723,2.546,3.014,2.964.454,5.673,1.745,8.092,3.496,1.17.844,1.858.78,2.752-.319.83-1.007,1.851-1.823,3.319-1.858,1.603-.043,2.603.752,3.34,2.071.936,1.659.426,3.191-.837,4.241-1.737,1.447-1.624,2.631-.411,4.376,1.652,2.369,2.61,5.134,3.156,7.964.241,1.248.745,1.617,1.879,1.546.518-.028,1.05.007,1.567.092,2.05.333,3.418,1.44,3.447,3.61.028,2.184-1.34,3.681-3.361,3.574-2.879-.149-3.581,1.241-4.035,3.645-.418,2.213-1.39,4.347-2.723,6.184-1.177,1.61-1.312,2.759.347,4.134,1.156.957,1.823,2.319,1.163,3.978-1.042,2.638-4,3.397-6.134,1.177-1.603-1.667-2.723-1.525-4.404-.34-2.149,1.518-4.617,2.546-7.191,2.957-1.993.319-2.581,1.071-2.51,3.028.099,2.808-.908,3.702-3.666,3.83h.007Z"/>
  <path class="cls-1" d="M84.054,226.603c-14.495-1.191-26.516-7.39-35.834-18.431-9.361-11.084-13.176-24.133-11.886-38.536,1.943-21.743,18.176-40.217,39.586-45.359,2.865-.688,5.751-1.355,8.73-1.411.128.837.78.73,1.39.844,12.893,2.362,23.523,8.687,31.579,18.942,9.092,11.581,12.744,24.842,10.545,39.494-2.929,19.474-13.914,32.75-31.672,40.813-4.007,1.815-8.404,2.035-12.432,3.645h-.007ZM82.997,142.119c-17.857,2.475-30.785,20.183-27.679,37.927,2.51,14.332,14.056,25.835,27.431,27.324,3.759,1.404,7.631.964,11.347.149,14.02-3.057,23.31-11.602,26.402-25.573,3.12-14.113-1.787-25.849-13.481-34.381-7.12-5.198-15.226-7.099-24.02-5.446h0Z"/>
  <path class="cls-6" d="M84.054,226.603c4.028-1.61,8.425-1.83,12.432-3.645,17.758-8.056,28.743-21.332,31.672-40.813,2.206-14.651-1.447-27.913-10.545-39.494-8.056-10.255-18.687-16.58-31.579-18.942-.61-.113-1.255-.007-1.39-.844,24.381-1.667,48.011,14.403,54.039,39.926,7.021,29.75-12.73,58.939-42.869,63.435-3.929.589-7.836.433-11.758.376h0Z"/>
  <path class="cls-4" d="M192.72,92.796c-9.425-.248-18.85-7.914-21.949-17.871-4.283-13.751,3.737-28.537,17.587-32.367.83-.227,1.709-.305,2.56-.447,5.298.993,9.709,3.489,13.517,7.354,11.957,12.12,8.702,32.87-6.411,40.664-1.759.908-3.83,1.213-5.312,2.666h.007Z"/>
  <path class="cls-2" d="M192.72,92.796c1.482-1.454,3.546-1.759,5.312-2.666,15.112-7.794,18.368-28.544,6.411-40.664-3.808-3.865-8.219-6.354-13.517-7.354,10.914-2.908,25.353,4.255,29.303,17.722,4.915,16.736-7.574,33.551-24.991,33.409-.851-.007-1.766.184-2.518-.447h0Z"/>
  <path class="cls-4" d="M213.584,171.599c-5.156-1.737-8.482-6.659-8.127-12.028.362-5.347,4.12-9.758,9.297-10.886.546.957,1.603,1.284,2.397,1.936,3.971,3.269,5.624,7.517,4.404,12.496-1.021,4.177-3.567,7.297-7.971,8.482Z"/>
  <path class="cls-2" d="M213.584,171.599c4.404-1.191,6.95-4.305,7.971-8.482,1.22-4.978-.433-9.219-4.404-12.496-.794-.652-1.851-.979-2.397-1.936,5.149-1.482,10.155.447,13.148,5.063,2.908,4.482,2.518,10.368-.936,14.347-3.659,4.212-8.893,5.581-13.382,3.503Z"/>
  <path class="cls-4" d="M82.749,207.37c-13.375-1.489-24.92-12.992-27.431-27.324-3.106-17.736,9.822-35.452,27.679-37.927.709.312,1.39.723,2.128.908,5.305,1.312,9.85,4.099,13.666,7.843,6.609,6.489,10.014,14.354,10.035,23.828.021,9.283-3.262,16.871-9.631,23.467-4.603,4.773-10.276,7.368-16.446,9.198v.007Z"/>
  <path class="cls-2" d="M82.749,207.37c6.17-1.837,11.843-4.425,16.446-9.198,6.368-6.595,9.652-14.183,9.631-23.467-.021-9.475-3.425-17.339-10.035-23.828-3.815-3.744-8.354-6.531-13.666-7.843-.738-.184-1.418-.603-2.128-.908,8.794-1.652,16.9.248,24.02,5.446,11.694,8.531,16.602,20.275,13.481,34.381-3.092,13.971-12.382,22.509-26.402,25.573-3.716.808-7.581,1.255-11.347-.149v-.007Z"/>
</svg>